<svg xmlns="http://www.w3.org/2000/svg" version="1.0" width="689.849714pt" height="905.300839pt" viewBox="0 0 689.849714 905.300839" preserveAspectRatio="xMidYMid meet">
<metadata>
Created by potrace 1.16, written by Peter Selinger 2001-2019
</metadata>
<g transform="translate(-162.119482,963.242489) scale(0.100000,-0.100000)" fill="#000000" stroke="none">
<path d="M1845 9553 c-44 -195 -56 -292 -62 -488 -6 -229 4 -344 47 -540 92 -415 283 -762 573 -1042 111 -107 111 -108 -40 -101 -108 5 -201 33 -342 105 -57 30 -106 52 -108 49 -6 -6 45 -103 88 -167 46 -68 157 -172 232 -217 73 -44 176 -79 273 -94 44 -6 81 -13 83 -14 2 -2 -10 -20 -26 -41 -58 -74 -131 -190 -233 -368 -127 -223 -184 -307 -280 -409 -120 -127 -291 -243 -389 -262 -17 -4 -31 -10 -31 -14 0 -17 122 -42 225 -47 88 -4 127 -1 194 15 l83 20 -6 -52 c-5 -41 -13 -56 -37 -75 -42 -34 -167 -185 -227 -273 -144 -214 -250 -491 -240 -628 l3 -43 48 62 c83 107 269 228 454 294 40 15 74 23 76 19 3 -4 14 -41 26 -84 11 -42 32 -102 46 -133 14 -32 25 -64 25 -72 0 -8 -18 -33 -39 -56 -284 -303 -486 -832 -456 -1191 7 -85 17 -107 31 -64 4 13 44 59 89 103 66 66 99 90 176 127 91 45 232 89 244 76 3 -3 -5 -46 -19 -94 -54 -190 -61 -246 -61 -469 1 -192 3 -220 28 -323 46 -195 158 -433 240 -510 l24 -23 5 123 c4 98 11 139 32 203 49 145 152 282 270 361 31 20 58 35 60 33 2 -2 11 -46 20 -97 21 -118 59 -239 102 -323 117 -233 373 -629 575 -891 112 -145 354 -396 345 -358 -25 104 -14 267 27 384 l13 38 39 -64 c51 -82 222 -253 465 -465 217 -189 239 -211 345 -353 118 -160 192 -309 234 -473 l18 -68 21 85 c67 273 226 513 502 759 344 306 484 450 535 547 l19 35 23 -75 c28 -88 40 -244 25 -310 -6 -24 -9 -47 -6 -49 17 -17 314 328 447 519 148 214 337 516 430 690 51 95 110 261 127 360 22 124 13 114 70 79 78 -48 184 -169 230 -263 54 -111 73 -190 74 -318 1 -60 2 -108 4 -108 10 0 74 84 114 148 92 149 156 350 179 561 20 180 -2 394 -61 606 -16 55 -27 102 -24 104 2 3 37 -3 78 -13 147 -35 314 -143 398 -258 l43 -59 8 43 c13 69 0 303 -22 400 -47 205 -135 418 -244 593 -56 91 -163 230 -210 273 -25 23 -25 25 -9 60 8 21 30 84 48 142 22 71 37 106 48 108 37 8 238 -82 341 -151 63 -43 166 -141 203 -192 l21 -30 1 47 c1 162 -103 439 -238 633 -72 104 -183 236 -227 269 -32 25 -35 32 -35 77 0 43 2 50 18 45 117 -37 251 -44 362 -21 77 16 142 44 104 45 -31 0 -172 72 -239 122 -147 109 -276 267 -405 497 -131 231 -167 290 -231 380 -33 46 -59 84 -57 85 2 2 51 12 110 23 235 45 418 181 525 390 21 39 35 74 33 77 -3 3 -59 -22 -125 -55 -151 -75 -261 -104 -363 -96 -41 3 -76 8 -78 10 -3 2 43 52 101 111 225 227 386 492 489 806 136 413 151 787 50 1214 l-26 108 -53 -100 c-98 -188 -274 -418 -472 -617 -142 -143 -231 -219 -395 -337 -105 -74 -299 -198 -312 -198 -2 0 -3 46 -3 103 1 110 -12 180 -50 267 l-24 55 -29 -88 c-56 -167 -119 -264 -251 -393 -90 -87 -143 -124 -283 -198 l-89 -47 -41 17 c-374 152 -771 213 -1306 201 -438 -10 -751 -64 -1052 -183 l-89 -35 -96 51 c-145 77 -209 124 -304 220 -103 105 -166 202 -216 335 -20 55 -39 102 -41 105 -6 9 -22 -26 -47 -103 -21 -65 -25 -98 -25 -193 l0 -116 -67 38 c-95 52 -282 181 -394 270 -303 243 -582 568 -747 872 l-40 74 -17 -79z m370 -820 c74 -99 295 -320 405 -405 273 -211 604 -383 965 -502 69 -22 82 -30 92 -56 14 -36 10 -40 -43 -40 -31 0 -65 12 -121 40 l-78 41 50 -51 c42 -43 83 -68 245 -147 107 -52 276 -135 375 -184 292 -143 470 -271 608 -436 161 -194 295 -452 347 -673 13 -52 25 -102 27 -110 3 -8 16 28 29 80 81 318 272 641 498 841 161 143 283 213 818 473 118 57 197 103 238 137 34 28 60 53 57 55 -2 2 -29 -10 -61 -27 -53 -29 -176 -53 -176 -35 0 4 6 22 14 40 11 28 22 35 62 45 71 18 299 109 444 178 366 173 668 409 908 708 34 41 65 83 71 92 5 10 12 16 15 13 7 -8 -86 -229 -130 -308 -221 -399 -566 -709 -1099 -987 -466 -243 -575 -308 -708 -418 -191 -159 -345 -355 -461 -587 -50 -98 -149 -331 -231 -542 -65 -166 -107 -228 -155 -228 -34 0 -67 38 -99 113 -12 27 -25 46 -30 42 -5 -3 -21 -31 -36 -62 -33 -73 -51 -93 -84 -93 -63 0 -88 42 -205 336 -207 522 -332 728 -584 957 -139 127 -277 215 -607 387 -159 83 -347 185 -416 227 -334 199 -605 448 -799 737 -68 102 -226 426 -207 426 3 0 31 -35 62 -77z m2992 -752 l82 -72 -61 -99 c-33 -55 -63 -100 -67 -100 -3 0 -19 11 -36 24 l-29 24 -33 -25 c-18 -14 -37 -22 -42 -19 -5 4 -33 47 -62 98 -40 69 -50 95 -42 107 5 9 47 46 92 83 64 53 86 66 99 59 9 -5 54 -41 99 -80z m-549 3 c61 -4 112 -9 112 -13 0 -22 -131 -191 -148 -191 -18 1 -213 48 -218 53 -4 3 15 42 42 87 43 73 50 80 73 76 14 -3 77 -8 139 -12z m1094 -69 c26 -44 46 -81 44 -83 -4 -3 -205 -51 -218 -52 -17 0 -69 55 -112 120 -27 39 -47 73 -45 74 5 4 260 23 274 21 5 -1 31 -37 57 -80z m-1506 -62 c-4 -27 -9 -55 -12 -65 -8 -27 -83 -51 -178 -56 l-88 -5 12 24 c7 13 28 47 48 76 31 47 39 53 81 58 25 4 51 8 56 10 6 2 27 4 49 4 l38 1 -6 -47z m1867 28 c23 -9 107 -119 107 -140 0 -18 -148 -12 -205 8 -48 17 -51 20 -62 67 -21 91 -23 88 63 80 41 -4 85 -11 97 -15z m-1241 -174 c41 -25 66 -54 95 -112 22 -42 66 -176 60 -181 -6 -7 -149 36 -188 56 -50 26 -106 76 -125 111 -53 104 53 190 158 126z m589 -6 c48 -49 36 -112 -33 -177 -43 -41 -98 -69 -187 -93 -67 -19 -71 -19 -71 -2 0 25 33 118 63 176 58 115 164 159 228 96z m-921 -99 c22 -38 40 -71 40 -74 0 -12 -103 -30 -141 -25 -82 11 -227 103 -202 128 23 23 92 38 175 39 l87 0 41 -68z m1388 44 c18 -9 32 -23 29 -29 -5 -19 -96 -75 -157 -98 -49 -19 -62 -20 -118 -11 -35 6 -66 13 -69 16 -3 2 12 37 34 76 l38 72 105 -4 c73 -3 115 -10 138 -22z m-1200 -268 c46 -6 85 -16 87 -22 2 -6 15 -49 29 -96 23 -78 24 -86 9 -102 -9 -10 -21 -18 -28 -18 -7 0 -55 45 -108 99 -71 73 -97 107 -97 125 0 30 -2 30 108 14z m837 -25 c-15 -39 -192 -215 -209 -210 -29 9 -29 37 -1 129 l29 95 65 10 c36 6 81 11 99 11 l32 2 -15 -37z m-402 -77 c31 -21 57 -44 57 -50 0 -7 -13 -50 -28 -96 l-29 -85 -68 0 -68 0 -29 85 c-15 46 -28 89 -28 95 0 10 120 95 130 92 3 -1 31 -20 63 -41z m-1823 -156 c57 -23 142 -61 189 -85 86 -45 296 -193 287 -202 -2 -3 -47 5 -98 18 -139 34 -332 32 -488 -4 -63 -15 -123 -27 -132 -27 -10 0 -18 -4 -18 -8 0 -8 241 -82 270 -82 8 -1 29 -7 45 -14 30 -13 29 -13 -70 -44 -171 -53 -355 -153 -433 -235 l-33 -34 48 12 c60 16 193 29 193 20 0 -4 -13 -43 -29 -88 -43 -124 -56 -207 -55 -357 0 -166 22 -259 95 -406 192 -391 625 -575 1039 -442 202 65 373 201 477 379 l47 81 22 -44 c30 -56 29 -90 -1 -198 -62 -219 -131 -374 -213 -475 -71 -88 -115 -120 -163 -119 l-40 1 22 -23 c12 -13 47 -33 78 -45 46 -17 69 -20 131 -15 41 3 86 8 100 12 24 5 29 -1 77 -98 28 -57 90 -158 138 -225 91 -129 195 -327 241 -456 l27 -79 32 89 c49 135 136 300 239 452 52 76 114 181 139 233 l46 95 53 -13 c95 -25 191 -12 257 35 39 28 39 36 -2 37 -104 2 -248 214 -342 506 -58 179 -63 215 -41 273 10 25 22 45 27 45 5 0 18 -19 30 -42 111 -220 347 -388 611 -434 109 -19 258 -14 358 12 155 39 340 156 437 274 236 288 286 659 138 1023 -6 15 -1 17 47 17 30 0 80 -7 111 -15 76 -20 75 -20 41 16 -72 77 -261 179 -427 230 -54 17 -96 33 -94 36 3 2 65 22 139 43 149 43 215 68 183 69 -11 1 -72 13 -135 28 -157 37 -363 39 -487 5 -93 -25 -96 -25 -89 -13 10 15 190 148 245 181 59 34 235 111 299 131 l41 12 78 -58 c330 -246 564 -659 614 -1085 16 -144 7 -386 -21 -524 -42 -211 -129 -436 -225 -583 -135 -205 -366 -370 -630 -450 -83 -25 -104 -27 -260 -27 -160 0 -175 1 -255 28 -47 16 -97 35 -112 42 -37 19 -35 7 8 -57 77 -115 133 -252 160 -396 26 -142 12 -372 -32 -493 -3 -9 -16 6 -37 43 -18 31 -75 107 -127 168 -52 61 -112 134 -133 163 -70 93 -115 203 -119 289 0 26 -5 47 -10 47 -4 0 -8 -4 -8 -8 0 -17 -140 -243 -197 -318 -33 -44 -107 -133 -163 -199 -57 -66 -105 -122 -106 -124 -2 -1 -7 -1 -12 0 -9 4 7 100 24 144 6 18 4 17 -21 -5 -85 -76 -213 -292 -251 -424 -10 -36 -21 -66 -24 -66 -3 0 -14 30 -24 66 -36 125 -121 268 -245 414 -16 19 -32 33 -34 30 -3 -3 4 -32 15 -65 10 -33 17 -70 16 -83 -3 -20 -15 -10 -83 69 -183 213 -288 355 -371 504 l-39 70 -7 -67 c-16 -137 -61 -218 -239 -424 -61 -71 -123 -153 -138 -183 l-28 -55 -11 35 c-31 100 -37 152 -36 299 1 134 4 168 27 251 31 112 76 217 137 312 23 37 40 70 37 73 -3 3 -22 -3 -44 -14 -110 -57 -297 -86 -443 -71 -242 25 -495 146 -673 322 -169 167 -303 450 -368 777 -31 153 -33 424 -5 575 66 361 261 712 509 922 94 80 168 133 183 133 5 0 57 -18 114 -40z m1791 -231 c16 -11 29 -28 29 -37 0 -26 -54 -160 -65 -163 -10 -2 -64 142 -65 171 0 14 44 49 63 50 5 0 22 -9 38 -21z m-1521 -463 c0 -2 -11 -28 -25 -57 -100 -220 -63 -440 100 -605 128 -129 300 -180 477 -143 116 25 248 119 306 219 l27 45 3 -43 c10 -133 -110 -321 -264 -415 -300 -182 -685 -98 -872 191 -62 97 -84 168 -89 302 -4 95 -1 130 16 198 21 86 70 193 122 268 l30 44 84 0 c47 0 85 -2 85 -4z m3170 -71 c92 -142 124 -260 117 -430 -6 -145 -27 -213 -99 -321 -197 -294 -597 -361 -893 -149 -131 93 -222 235 -232 359 -3 36 -3 66 0 66 3 0 19 -23 37 -50 86 -134 245 -220 405 -220 391 1 639 417 459 772 l-24 48 90 0 90 0 50 -75z m-362 -15 c83 -51 57 -171 -41 -187 -32 -5 -41 -1 -72 30 -42 42 -47 89 -14 131 38 48 77 56 127 26z m-2145 -60 c38 -42 37 -92 -2 -131 -87 -86 -225 30 -150 125 43 54 105 57 152 6z m2102 -220 c22 -24 14 -65 -16 -80 -47 -26 -92 46 -53 84 21 22 47 20 69 -4z m-2164 -20 c26 -15 26 -66 -1 -80 -47 -25 -94 22 -65 66 17 26 35 30 66 14z m924 -542 c84 -38 175 -303 175 -512 0 -140 -7 -155 -35 -69 -12 37 -33 88 -46 113 l-24 45 -2 -40 c-5 -88 -27 -225 -50 -320 -32 -134 -54 -207 -59 -202 -19 19 -95 360 -109 492 -6 55 -8 58 -21 40 -8 -11 -28 -60 -43 -110 -26 -80 -30 -87 -36 -62 -13 51 2 277 24 357 30 109 95 237 134 261 37 22 56 24 92 7z m2619 -949 c74 -66 165 -177 220 -268 26 -45 46 -84 44 -86 -2 -2 -35 7 -73 22 -48 17 -99 27 -160 30 l-90 6 -65 61 c-36 34 -98 78 -138 99 l-73 39 48 41 c26 22 72 66 102 98 l55 58 40 -29 c23 -15 63 -47 90 -71z m-5140 23 c39 -37 87 -79 106 -94 19 -14 33 -28 30 -29 -3 -2 -36 -20 -75 -39 -43 -21 -94 -58 -133 -97 l-64 -63 -71 0 c-73 0 -181 -22 -230 -47 -16 -8 -31 -12 -34 -10 -6 7 66 125 121 196 74 96 241 251 270 251 5 0 41 -30 80 -68z m606 -368 l53 -16 -41 -23 c-69 -39 -107 -72 -131 -115 -12 -22 -19 -40 -14 -40 4 0 37 9 71 20 105 33 107 27 23 -57 -87 -87 -179 -221 -207 -300 -17 -49 -22 -54 -74 -74 -126 -51 -273 -133 -332 -187 -15 -14 -30 -24 -32 -21 -7 7 31 215 54 299 63 223 203 420 354 495 60 31 78 35 146 35 42 0 100 -7 130 -16z m4026 -18 c156 -85 294 -290 354 -525 19 -76 51 -263 45 -269 -1 -2 -33 20 -70 48 -37 28 -124 78 -194 111 -69 34 -132 64 -140 68 -7 4 -22 28 -33 55 -28 73 -128 212 -215 300 l-78 79 48 -7 c27 -4 67 -14 89 -22 23 -8 43 -12 46 -9 3 2 -7 23 -21 44 -26 39 -119 111 -144 111 -6 0 -14 4 -18 10 -12 20 88 40 185 37 82 -2 102 -7 146 -31z m-3651 -338 c0 -149 3 -171 28 -253 49 -161 186 -410 294 -535 l38 -44 6 87 c9 128 41 184 200 352 70 74 140 154 154 180 15 25 31 45 35 45 13 0 50 -121 61 -196 19 -132 -19 -299 -102 -451 -52 -94 -101 -160 -237 -317 -133 -153 -218 -274 -274 -391 -27 -57 -44 -82 -49 -73 -27 49 -133 314 -167 418 -55 167 -66 238 -59 384 5 123 27 217 68 299 11 20 16 37 11 37 -13 0 -128 -122 -175 -188 -45 -61 -107 -202 -107 -241 0 -63 -37 3 -70 124 -18 68 -24 247 -11 331 34 209 156 433 298 549 30 25 56 45 56 45 1 0 2 -73 2 -162z m3077 90 c123 -120 211 -274 260 -456 40 -151 26 -374 -33 -507 l-22 -50 -12 45 c-37 137 -105 247 -219 359 -65 64 -95 76 -61 25 9 -14 27 -57 40 -95 66 -193 55 -386 -35 -644 -36 -102 -100 -256 -137 -329 l-25 -49 -38 81 c-69 146 -127 226 -359 492 -111 128 -194 273 -237 415 -29 94 -26 289 4 377 13 37 27 70 32 73 4 3 21 -16 36 -42 15 -26 87 -108 159 -183 91 -94 140 -152 159 -191 29 -60 46 -152 39 -209 l-4 -35 42 45 c123 132 265 402 315 595 18 74 24 225 12 308 -4 26 -4 47 1 47 5 0 42 -33 83 -72z m-1899 -833 c129 -128 245 -329 314 -545 3 -8 20 27 38 77 37 102 80 185 164 313 59 90 189 227 201 213 4 -4 12 -39 19 -77 23 -133 73 -224 187 -346 73 -77 97 -125 115 -224 25 -145 -3 -312 -78 -461 -49 -96 -77 -135 -222 -309 -163 -196 -190 -229 -236 -299 -21 -31 -40 -55 -43 -53 -2 3 2 38 9 78 36 206 1 521 -79 703 -26 62 -102 185 -112 185 -4 0 2 -30 11 -67 35 -133 23 -291 -41 -563 -19 -80 -35 -178 -39 -240 l-6 -105 -43 62 c-46 68 -158 208 -278 348 -144 169 -229 321 -260 464 -27 129 -12 316 32 404 9 18 44 61 79 97 101 106 148 199 175 343 7 37 16 67 20 67 4 0 37 -29 73 -65z"/>
</g>
</svg>