<svg xmlns="http://www.w3.org/2000/svg" version="1.0" width="692.315606pt" height="878.823187pt" viewBox="0 0 692.315606 878.823187" preserveAspectRatio="xMidYMid meet">
<metadata>
Created by potrace 1.16, written by Peter Selinger 2001-2019
</metadata>
<g transform="translate(-165.326284,959.000000) scale(0.100000,-0.100000)" fill="#000000" stroke="none">
<path d="M2632 9473 c-209 -207 -290 -373 -308 -630 -11 -159 36 -385 112 -535 14 -27 21 -48 18 -48 -19 0 -118 87 -154 133 -63 84 -120 217 -143 335 -23 117 -28 115 -52 -26 -19 -109 -19 -288 0 -389 58 -306 238 -556 523 -727 34 -21 62 -40 62 -43 0 -13 -173 12 -244 35 -131 43 -280 152 -361 265 -22 31 -44 56 -49 57 -25 1 24 -250 74 -380 65 -168 240 -381 408 -494 39 -27 72 -53 72 -56 0 -4 -10 -15 -21 -26 -33 -29 -120 -140 -175 -223 l-49 -73 -38 43 c-53 60 -104 171 -115 249 l-8 65 -18 -40 c-52 -120 -76 -233 -76 -361 0 -86 26 -207 58 -269 l18 -37 -27 -76 c-14 -43 -35 -111 -44 -152 -10 -41 -19 -76 -21 -78 -5 -8 -87 51 -124 89 -40 42 -90 130 -90 160 0 35 -18 28 -24 -9 -27 -160 -11 -328 43 -445 15 -35 53 -92 83 -128 49 -58 54 -67 46 -94 -4 -17 -11 -65 -14 -109 l-7 -78 -36 6 c-64 10 -174 72 -237 134 l-61 59 13 -79 c30 -190 111 -332 246 -433 24 -18 28 -30 37 -112 6 -51 14 -100 18 -109 5 -15 -1 -16 -58 -12 -76 5 -160 40 -207 87 -36 36 -37 34 -21 -41 24 -112 112 -263 199 -342 23 -21 80 -63 127 -93 46 -30 82 -60 80 -66 -2 -7 -34 -22 -71 -35 -112 -38 -220 -28 -312 29 -40 24 -40 21 -14 -55 78 -228 253 -392 481 -451 31 -8 82 -15 113 -15 31 0 56 -5 56 -10 0 -17 -132 -145 -180 -175 -59 -37 -165 -75 -212 -75 -21 0 -38 -4 -38 -8 0 -4 28 -26 63 -48 212 -138 470 -159 710 -59 17 7 17 4 -3 -36 -54 -105 -132 -197 -225 -266 l-30 -21 75 -35 c171 -80 344 -86 504 -17 27 11 51 19 53 17 2 -2 -24 -43 -58 -91 -74 -103 -174 -200 -253 -245 -31 -18 -55 -35 -52 -38 8 -8 189 -33 244 -33 168 0 360 78 498 203 29 26 55 47 59 47 15 0 -5 -120 -35 -214 -21 -64 -48 -121 -81 -171 -28 -42 -49 -78 -47 -80 9 -9 168 64 228 104 136 92 265 252 331 411 12 30 26 59 30 63 12 15 22 -201 15 -336 -17 -347 -128 -757 -251 -928 -19 -27 -35 -51 -35 -54 0 -10 105 48 165 90 69 49 187 169 233 237 18 26 50 84 72 129 l40 83 0 -60 c-1 -154 -51 -511 -95 -674 -8 -30 -13 -55 -11 -57 5 -6 143 171 189 242 71 111 153 283 196 412 78 234 131 565 131 825 l0 133 20 -44 c45 -98 72 -214 77 -331 6 -131 1 -169 -64 -505 -45 -228 -47 -249 -47 -410 -1 -194 16 -277 83 -420 55 -117 166 -281 148 -219 -37 129 -44 387 -14 514 19 79 62 217 75 237 4 6 7 -82 7 -195 1 -177 4 -222 23 -307 33 -146 75 -269 153 -450 38 -88 73 -168 77 -178 6 -14 15 -1 39 55 18 40 52 119 77 176 119 270 176 547 162 778 -3 56 -9 110 -13 119 -4 13 -3 16 5 11 16 -10 78 -209 92 -300 16 -93 8 -325 -14 -411 -8 -33 -13 -61 -11 -63 7 -8 110 157 147 234 56 119 79 218 85 361 7 142 -5 248 -52 493 -82 417 -83 503 -14 722 53 166 56 161 62 -93 5 -241 22 -366 77 -591 66 -267 196 -521 370 -728 52 -62 62 -70 56 -45 -50 199 -87 446 -100 670 l-6 100 30 -64 c83 -177 236 -346 391 -434 46 -25 85 -45 87 -42 2 2 -15 30 -37 62 -93 133 -187 433 -232 743 -16 105 -16 465 -1 500 6 15 11 19 11 9 2 -28 87 -193 133 -254 66 -89 169 -187 245 -231 67 -39 195 -96 201 -89 3 2 -17 36 -44 76 -26 39 -60 108 -75 153 -30 87 -56 222 -45 233 3 4 23 -9 44 -28 177 -167 406 -242 640 -209 134 18 134 19 56 70 -37 24 -95 71 -129 104 -59 59 -170 205 -161 214 3 2 40 -9 83 -24 68 -25 93 -28 188 -28 121 0 187 15 290 66 l59 30 -39 31 c-70 54 -146 140 -191 217 -24 41 -40 76 -35 78 5 2 23 -4 39 -12 97 -50 349 -67 467 -32 69 21 216 95 260 131 l30 25 -36 0 c-47 0 -131 25 -203 62 -56 29 -206 165 -206 188 0 5 23 10 53 10 113 0 258 55 370 139 93 71 168 175 217 303 17 42 30 82 30 87 0 5 -28 -5 -62 -22 -56 -29 -69 -32 -152 -32 -72 0 -103 5 -149 24 -32 12 -56 28 -54 34 2 6 37 31 78 56 154 92 282 258 323 417 22 86 21 90 -21 56 -66 -51 -123 -75 -197 -80 -63 -4 -69 -3 -63 12 4 10 12 59 18 110 l12 93 57 46 c111 89 196 253 218 424 l8 61 -57 -57 c-63 -63 -172 -127 -236 -137 l-40 -6 -6 83 c-3 46 -10 95 -15 109 -8 22 -3 32 40 80 106 119 155 277 145 470 -3 58 -10 116 -15 130 l-10 25 -7 -30 c-11 -42 -43 -104 -76 -146 -29 -37 -135 -116 -144 -107 -3 2 -9 29 -15 59 -6 30 -24 97 -41 150 l-30 96 25 62 c33 81 46 155 46 256 0 104 -13 177 -53 295 l-32 95 -8 -45 c-18 -90 -48 -166 -95 -234 -26 -38 -52 -71 -58 -73 -6 -2 -27 20 -45 49 -49 76 -125 176 -173 226 -33 35 -38 45 -26 52 57 32 189 142 252 209 173 184 276 408 295 641 6 84 9 84 -66 -8 -73 -88 -172 -167 -266 -212 -89 -42 -145 -56 -255 -65 -62 -4 -72 -3 -56 7 10 7 59 40 110 73 104 69 233 193 296 285 138 203 205 465 180 705 -14 134 -50 270 -50 189 0 -98 -81 -310 -154 -406 -36 -47 -145 -143 -153 -134 -3 2 9 35 25 73 100 228 126 455 77 673 -22 102 -101 258 -178 356 -56 69 -226 228 -235 219 -2 -2 8 -39 22 -83 83 -264 49 -625 -87 -912 -45 -96 -42 -97 -66 35 -14 77 -64 176 -119 234 -25 26 -40 37 -36 26 38 -107 51 -243 35 -366 -39 -293 -221 -547 -572 -797 l-86 -62 -101 40 c-468 182 -979 263 -1517 239 -431 -19 -808 -95 -1162 -235 l-113 -45 -72 53 c-171 123 -338 279 -421 395 -62 86 -124 218 -148 316 -38 156 -29 365 18 462 15 29 14 28 -27 -10 -53 -51 -116 -178 -136 -275 -8 -41 -16 -79 -17 -84 -5 -16 -67 124 -102 229 -87 265 -93 569 -16 790 11 30 15 55 10 55 -4 0 -62 -53 -127 -117z m459 -2534 c89 -179 213 -352 335 -469 58 -56 65 -60 47 -29 -45 80 -84 255 -82 373 1 70 1 71 11 26 36 -175 87 -301 172 -428 41 -60 116 -145 116 -131 0 3 -9 32 -21 65 -20 57 -38 204 -26 204 4 0 22 -30 41 -67 63 -125 216 -281 341 -349 l49 -27 -46 59 c-45 58 -78 114 -78 132 0 10 95 -79 291 -269 54 -53 99 -95 99 -94 0 9 -62 179 -89 244 -17 41 -31 76 -31 79 0 4 14 -9 30 -28 50 -58 159 -228 265 -414 55 -96 101 -171 103 -166 2 5 -17 69 -41 142 -25 73 -43 134 -42 136 6 7 97 -129 139 -209 81 -153 147 -379 162 -554 7 -89 8 -89 -58 5 -65 91 -223 244 -353 340 -60 45 -216 152 -345 238 -389 257 -497 343 -652 517 -160 178 -276 374 -346 580 -31 91 -50 175 -38 175 3 0 24 -37 47 -81z m4103 54 c-21 -92 -93 -283 -140 -373 -83 -158 -174 -280 -324 -430 -158 -158 -202 -193 -570 -439 -151 -101 -317 -215 -369 -254 -117 -86 -264 -227 -322 -308 -83 -116 -81 -115 -74 -29 14 170 76 384 159 550 42 84 124 208 138 209 4 1 -1 -23 -11 -51 -34 -93 -73 -229 -67 -235 3 -4 6 -2 6 3 0 5 21 45 46 89 26 44 81 141 123 216 71 124 197 309 212 309 4 0 -15 -55 -41 -122 -79 -201 -78 -203 32 -95 51 51 126 121 167 156 40 35 86 82 102 104 16 22 29 35 29 28 0 -25 -29 -79 -78 -144 -56 -73 -51 -74 52 -4 109 74 245 226 302 340 13 26 27 47 29 47 14 0 -24 -205 -50 -275 -9 -24 56 49 106 120 44 61 120 211 143 282 10 28 23 84 30 125 l14 73 1 -80 c1 -94 -26 -235 -62 -325 l-26 -63 60 59 c104 102 274 341 345 487 30 61 49 75 38 30z m-4295 -262 c58 -159 189 -366 294 -465 l52 -48 -35 7 c-57 11 -132 36 -183 62 -27 13 -51 22 -54 19 -9 -9 39 -79 97 -140 94 -100 244 -187 408 -236 74 -22 87 -34 52 -45 -43 -14 -177 -110 -233 -168 -242 -252 -324 -604 -216 -932 77 -230 221 -401 424 -499 123 -60 213 -81 355 -80 136 0 232 23 350 85 121 63 251 185 293 277 46 99 34 -144 -18 -378 -13 -58 -26 -114 -30 -125 -11 -33 42 54 94 155 64 123 162 369 196 490 37 129 45 139 39 50 -24 -358 -91 -540 -362 -980 -118 -192 -243 -382 -249 -377 -2 2 3 33 12 68 8 35 15 82 14 104 l0 40 -14 -33 c-18 -42 -113 -141 -190 -199 -53 -40 -144 -93 -160 -93 -3 0 8 26 24 58 27 53 58 168 48 178 -2 2 -26 -16 -53 -42 -71 -66 -155 -119 -245 -154 -109 -42 -123 -40 -72 13 34 35 93 131 93 152 0 3 -12 -1 -27 -9 -93 -47 -267 -47 -418 1 -66 20 -225 94 -225 103 0 5 31 17 68 29 59 18 143 65 206 115 28 22 19 25 -49 13 -78 -13 -226 11 -333 53 -82 33 -183 97 -247 155 l-40 36 47 -4 c25 -2 70 -1 100 4 54 9 178 56 178 68 0 4 -30 14 -67 23 -196 46 -346 145 -489 320 -31 38 -54 71 -50 75 3 3 29 -1 57 -10 68 -22 133 -21 213 3 36 12 66 22 66 24 0 2 -20 16 -44 30 -88 52 -188 172 -272 328 -24 45 -42 83 -40 86 3 2 18 -5 35 -17 63 -45 185 -78 243 -65 l28 6 -51 39 c-105 84 -212 272 -268 473 -17 60 -31 114 -31 120 0 6 19 -8 43 -31 65 -63 118 -86 215 -91 46 -3 88 0 93 5 6 6 -6 22 -32 42 -50 41 -104 123 -130 199 -28 81 -59 192 -53 192 3 0 24 -13 47 -28 52 -35 119 -62 154 -62 25 0 24 2 -25 53 -58 62 -94 128 -116 214 -21 80 -21 78 19 54 72 -42 245 -80 245 -53 0 5 -8 17 -19 26 -46 41 -97 198 -108 330 l-6 81 41 -37 c51 -46 104 -74 179 -93 84 -22 87 -19 38 29 -47 47 -75 118 -75 185 l1 36 31 -38 c17 -21 43 -44 59 -52 l28 -15 -22 48 c-17 37 -22 71 -25 167 -2 73 0 116 5 110 5 -5 26 -34 47 -62 43 -60 54 -68 30 -21 -32 62 -55 144 -60 218 l-5 75 25 -80 c13 -44 38 -118 55 -164z m4501 96 c-6 -29 -21 -78 -34 -109 -28 -68 -20 -67 25 2 18 28 36 50 41 50 13 0 9 -151 -7 -218 -8 -34 -23 -74 -32 -89 l-17 -26 31 16 c17 9 42 30 56 47 14 16 29 30 33 30 13 0 -7 -103 -28 -144 -11 -23 -36 -56 -55 -73 -40 -38 -30 -41 52 -19 67 17 128 50 174 91 21 19 41 35 45 35 7 0 -1 -72 -20 -174 -16 -82 -56 -183 -95 -238 l-23 -31 65 6 c64 6 154 36 193 63 32 22 35 17 20 -40 -27 -104 -84 -201 -152 -262 l-27 -23 27 -1 c39 0 127 36 172 72 l38 31 -7 -34 c-16 -74 -59 -197 -88 -252 -17 -32 -55 -80 -84 -108 -65 -58 -59 -64 55 -57 90 5 145 29 211 92 l43 41 -6 -40 c-13 -73 -75 -246 -121 -334 -52 -100 -122 -191 -183 -238 l-44 -33 29 -2 c92 -5 169 14 236 58 22 14 41 24 43 22 6 -6 -49 -118 -89 -180 -62 -96 -133 -174 -196 -214 -33 -22 -59 -43 -57 -49 4 -16 106 -44 162 -44 28 -1 74 6 103 15 29 8 55 13 58 10 10 -9 -77 -114 -152 -184 -40 -37 -108 -89 -153 -115 -84 -51 -228 -107 -274 -107 -42 0 -33 -15 23 -40 71 -30 185 -52 233 -45 l41 6 -50 -45 c-68 -61 -187 -132 -271 -161 -116 -40 -265 -52 -349 -28 -18 5 -18 3 4 -21 41 -44 121 -89 206 -118 l80 -26 -105 -51 c-122 -58 -245 -91 -347 -91 -79 0 -163 15 -205 36 -16 8 -28 12 -28 9 0 -19 58 -114 92 -151 22 -24 36 -44 30 -44 -6 0 -48 13 -92 29 -87 32 -189 95 -259 161 -24 23 -45 39 -48 36 -10 -10 20 -120 48 -173 16 -31 27 -58 25 -61 -3 -2 -42 17 -88 44 -93 55 -239 190 -262 245 l-15 34 0 -40 c0 -22 8 -71 19 -110 10 -38 17 -71 15 -73 -5 -5 -188 276 -283 435 -234 390 -335 674 -331 929 1 64 2 66 11 34 27 -92 84 -255 125 -354 41 -101 183 -389 189 -383 1 1 -6 37 -16 80 -41 172 -75 457 -54 457 5 0 25 -25 44 -56 51 -83 174 -193 267 -242 119 -62 223 -86 368 -85 144 0 237 22 354 83 159 83 275 203 361 375 67 135 93 244 93 400 2 357 -170 648 -484 818 l-34 19 95 32 c168 56 350 167 417 253 39 51 76 113 71 119 -3 2 -31 -9 -64 -25 -51 -25 -163 -61 -191 -61 -5 0 19 28 52 63 75 76 181 235 235 349 42 91 109 280 112 319 1 13 3 2 5 -24 2 -27 -1 -72 -7 -100z m-3420 -1175 c194 -116 241 -148 403 -273 109 -83 112 -87 125 -140 21 -82 20 -280 -2 -359 -63 -232 -261 -427 -491 -485 -138 -35 -327 -9 -454 62 -82 45 -187 145 -242 229 -139 213 -142 529 -8 756 84 142 204 242 369 304 67 25 89 30 105 21 11 -5 99 -57 195 -115z m2560 97 c171 -65 310 -177 385 -312 104 -187 122 -413 51 -619 -34 -96 -122 -224 -198 -287 -77 -64 -202 -126 -286 -142 -133 -25 -320 4 -432 68 -262 151 -393 422 -346 718 l16 100 55 51 c105 98 368 274 620 416 60 33 65 34 135 7z m-1352 -986 c168 -236 180 -262 287 -615 l47 -156 -41 -124 c-91 -274 -357 -1006 -365 -1007 -5 -1 -46 105 -92 236 -45 131 -116 335 -159 453 -42 118 -95 266 -116 329 l-39 114 76 240 c41 132 82 254 91 270 33 65 228 357 238 357 2 0 35 -44 73 -97z"/>
<path d="M3725 5586 c-164 -54 -289 -185 -342 -358 -23 -77 -21 -225 6 -309 58 -183 216 -321 399 -349 244 -38 475 116 548 365 20 70 22 205 5 280 -34 144 -140 275 -277 341 -75 37 -84 39 -189 41 -70 1 -125 -3 -150 -11z m345 -155 c114 -81 80 -256 -54 -278 -48 -8 -80 2 -121 38 -86 76 -58 215 50 254 46 16 89 11 125 -14z"/>
<path d="M6245 5586 c-227 -75 -365 -267 -365 -504 0 -154 40 -258 142 -367 69 -75 152 -119 263 -142 185 -37 372 40 486 201 187 265 91 646 -198 783 -73 35 -85 38 -183 40 -67 2 -119 -2 -145 -11z m325 -141 c57 -16 100 -79 100 -147 0 -80 -66 -148 -143 -148 -130 0 -200 156 -114 255 23 27 92 56 117 50 8 -2 26 -7 40 -10z"/>
<path d="M5047 4528 c-70 -141 -188 -445 -189 -488 -1 -28 58 -279 103 -440 27 -94 148 -471 154 -478 4 -5 93 262 139 417 24 80 63 226 86 324 l43 178 -52 147 c-45 126 -202 472 -214 472 -2 0 -34 -60 -70 -132z"/>
</g>
</svg>