<svg xmlns="http://www.w3.org/2000/svg" version="1.0" width="667.435179pt" height="796.913046pt" viewBox="0 0 667.435179 796.913046" preserveAspectRatio="xMidYMid meet">
<metadata>
Created by potrace 1.16, written by Peter Selinger 2001-2019
</metadata>
<g transform="translate(-178.534861,922.055030) scale(0.100000,-0.100000)" fill="#000000" stroke="none">
<path d="M5116 9220 c-3 -8 -27 -103 -55 -210 -27 -107 -53 -196 -59 -198 -5 -1 -46 20 -91 48 -92 57 -92 62 -6 -81 l53 -88 -62 -20 c-33 -11 -88 -28 -121 -37 l-60 -17 120 -27 c89 -20 119 -31 117 -41 -3 -12 -44 -81 -100 -167 -12 -18 6 -11 78 33 51 31 96 53 101 48 4 -4 25 -95 46 -200 20 -106 40 -193 44 -193 3 0 23 88 44 195 20 107 40 197 44 199 4 3 27 -8 51 -23 25 -15 66 -39 93 -55 l47 -27 -65 100 c-61 96 -63 101 -42 106 12 3 67 16 122 29 l100 23 -101 31 c-56 18 -106 32 -112 32 -26 0 -20 23 22 88 50 79 79 132 71 132 -3 0 -41 -22 -86 -50 -52 -32 -81 -45 -84 -37 -2 6 -26 104 -54 217 -27 113 -51 198 -55 190z"/>
<path d="M5705 8418 l-20 -73 -63 -20 -63 -21 63 -20 63 -20 17 -63 c9 -35 19 -66 22 -68 2 -3 14 27 26 65 l20 71 58 17 57 17 -55 16 -55 17 -25 77 -25 78 -20 -73z"/>
<path d="M4502 8445 c-6 -22 -14 -52 -17 -67 -9 -35 -19 -43 -80 -61 l-50 -14 60 -19 60 -19 17 -64 c9 -35 19 -65 22 -68 2 -2 12 22 21 54 9 32 17 63 19 68 2 6 30 19 62 29 l59 19 -54 18 c-30 11 -56 21 -59 24 -3 2 -15 35 -27 72 l-22 68 -11 -40z"/>
<path d="M3414 8306 c-3 -7 109 -186 250 -397 235 -354 260 -388 320 -434 36 -27 65 -53 66 -57 0 -4 -25 -40 -55 -80 -75 -101 -133 -204 -173 -311 -51 -135 -65 -215 -66 -357 0 -148 17 -225 76 -350 52 -109 168 -230 268 -278 77 -38 220 -76 345 -91 103 -13 525 -27 525 -18 0 4 -11 50 -25 103 -27 103 -31 149 -15 159 5 3 17 -13 27 -37 23 -61 155 -318 163 -318 9 0 81 133 135 253 48 105 57 118 70 96 9 -13 -12 -128 -37 -198 -10 -30 -18 -56 -18 -59 0 -8 439 6 530 18 322 41 509 154 614 373 56 117 78 213 77 347 -1 233 -80 453 -238 665 -36 47 -64 87 -62 89 2 1 34 26 71 54 61 48 87 83 315 425 225 337 272 417 246 417 -5 0 -60 -23 -123 -51 -63 -28 -275 -120 -470 -206 -195 -85 -380 -168 -410 -184 -50 -27 -74 -55 -285 -331 -297 -388 -403 -523 -414 -523 -5 0 -26 23 -48 50 -69 88 -445 577 -522 678 -41 54 -83 105 -95 112 -19 12 -682 305 -691 305 -2 0 -43 18 -92 41 -48 22 -115 52 -148 66 -33 14 -64 29 -69 34 -15 13 -36 11 -42 -5z m780 -832 c331 -211 792 -541 805 -576 4 -12 -1 -9 -74 37 -27 18 -105 67 -172 109 -154 97 -327 218 -518 362 -262 198 -272 214 -41 68z m2006 82 c0 -13 -385 -298 -590 -437 -114 -76 -364 -228 -369 -223 -3 2 4 11 16 19 11 8 53 40 94 71 229 175 454 332 699 487 126 81 150 94 150 83z m-1825 -424 c1 -12 5 -25 10 -29 4 -5 4 2 1 15 -4 12 -4 22 0 22 19 0 416 -315 520 -412 l32 -30 -14 -59 c-45 -191 -194 -331 -387 -361 -241 -37 -469 116 -532 357 -54 209 47 449 235 558 l44 26 45 -32 c28 -20 45 -41 46 -55z m1666 37 c137 -92 211 -237 210 -413 0 -246 -147 -424 -390 -473 -231 -48 -469 97 -533 325 -10 37 -18 73 -18 82 0 20 247 230 445 377 86 65 100 72 106 56 6 -14 8 -13 8 8 1 20 12 34 48 57 26 17 52 28 57 25 6 -4 36 -24 67 -44z m-839 -562 c27 -34 41 -85 35 -129 -6 -45 -106 -298 -118 -298 -10 0 -108 249 -116 293 -7 42 17 115 46 141 44 40 120 36 153 -7z m-282 -343 c0 -20 -46 -83 -75 -102 -41 -29 -116 -52 -164 -52 -35 1 -33 2 34 34 39 18 96 54 129 80 55 43 76 54 76 40z m489 -44 c39 -28 98 -64 133 -81 l63 -30 -60 6 c-77 7 -163 49 -192 94 -21 32 -30 61 -18 61 3 0 36 -23 74 -50z"/>
<path d="M4398 6976 c-155 -60 -199 -258 -82 -368 89 -83 241 -76 321 15 41 47 56 96 51 168 -3 45 -11 69 -34 101 -53 76 -174 115 -256 84z"/>
<path d="M5706 6978 c-61 -17 -130 -91 -146 -156 -35 -148 66 -275 218 -273 106 1 187 66 212 171 14 60 -5 141 -46 190 -53 62 -154 91 -238 68z"/>
<path d="M5840 6410 c0 -22 3 -40 8 -40 4 0 6 18 4 40 -2 22 -6 40 -8 40 -2 0 -4 -18 -4 -40z"/>
<path d="M3212 7699 c-18 -79 -36 -147 -40 -151 -4 -4 -54 -20 -110 -37 -57 -16 -106 -32 -108 -34 -3 -3 19 -10 48 -17 29 -7 81 -21 114 -31 l62 -19 32 -131 c19 -76 36 -126 40 -118 4 8 19 64 34 124 15 61 30 116 34 121 4 6 57 24 117 41 l110 31 -60 17 c-33 9 -84 24 -114 34 l-55 17 -35 149 -36 148 -33 -144z"/>
<path d="M6965 7694 c-16 -74 -32 -139 -35 -143 -3 -5 -56 -23 -119 -41 l-114 -33 113 -32 c63 -17 117 -38 122 -46 4 -7 21 -68 37 -134 16 -66 32 -113 35 -105 3 8 17 62 31 119 32 127 37 137 72 145 15 3 66 17 111 29 l84 23 -109 32 c-59 18 -113 39 -119 46 -6 8 -23 70 -38 138 -16 68 -31 126 -35 130 -3 4 -20 -54 -36 -128z"/>
<path d="M4950 7749 c-72 -9 -233 -44 -257 -58 -11 -6 411 -556 428 -556 17 0 442 547 432 556 -15 12 -180 48 -269 59 -103 11 -227 11 -334 -1z m204 -248 l28 -29 -23 -31 c-28 -38 -38 -39 -73 -2 l-27 28 26 32 c15 17 30 31 34 31 4 0 20 -13 35 -29z"/>
<path d="M2751 7382 c-18 -38 -69 -113 -112 -167 -44 -55 -88 -118 -100 -142 -44 -91 -34 -195 33 -327 l30 -59 -21 -126 c-12 -69 -24 -168 -28 -219 -3 -54 -10 -89 -15 -84 -5 5 -19 39 -32 76 -19 53 -23 81 -19 127 8 88 -12 132 -97 208 -39 34 -79 79 -90 99 l-19 37 -1 -129 c0 -111 3 -136 21 -172 20 -43 58 -78 115 -107 23 -12 40 -36 69 -99 44 -95 50 -139 40 -274 l-7 -96 -44 43 c-30 29 -46 54 -50 79 -11 70 -34 137 -55 164 -11 15 -43 38 -71 52 -57 29 -200 85 -205 81 -4 -5 62 -198 80 -232 29 -58 77 -87 183 -114 52 -14 119 -62 139 -100 11 -22 17 -75 21 -183 l6 -153 -41 45 c-22 25 -45 63 -51 85 -17 66 -51 124 -85 145 -31 19 -222 106 -256 117 -23 7 62 -240 99 -287 35 -44 103 -79 172 -87 42 -5 62 -14 91 -40 48 -43 63 -86 89 -243 12 -69 26 -142 31 -164 6 -21 8 -40 5 -43 -12 -12 -72 60 -103 125 -54 113 -110 147 -281 167 -64 8 -132 19 -150 26 -18 6 -35 9 -38 6 -7 -7 88 -177 139 -250 62 -88 96 -103 234 -100 112 3 113 2 146 -27 42 -37 88 -131 116 -240 81 -309 213 -611 342 -787 22 -29 39 -55 39 -58 0 -8 -166 83 -231 126 -66 45 -149 134 -178 193 -12 22 -38 89 -60 148 -46 126 -83 183 -149 232 -63 46 -107 64 -275 115 -75 22 -182 64 -237 91 -55 28 -102 50 -104 50 -3 0 19 -51 49 -112 35 -72 72 -172 101 -273 53 -184 88 -257 154 -319 79 -74 151 -103 425 -172 287 -71 331 -87 511 -177 104 -52 145 -79 200 -132 38 -36 99 -89 137 -117 37 -28 65 -53 63 -55 -8 -9 -257 38 -304 56 -26 11 -108 50 -183 89 -164 84 -241 102 -351 82 -73 -13 -194 -69 -294 -137 -91 -62 -190 -109 -288 -138 -50 -14 -91 -27 -93 -29 -5 -5 136 -63 364 -147 369 -137 411 -134 799 58 159 79 187 86 336 81 l123 -4 120 -56 c139 -64 274 -114 360 -132 l60 -12 -65 -12 c-167 -30 -312 -35 -494 -17 -350 34 -459 -17 -646 -300 -86 -130 -140 -195 -238 -289 -40 -38 -71 -70 -70 -71 5 -3 173 14 393 41 401 49 479 83 725 314 60 56 126 114 145 127 66 45 163 84 257 104 100 21 388 38 388 23 0 -5 -33 -26 -73 -46 -40 -21 -122 -70 -181 -109 -60 -39 -145 -88 -189 -110 -100 -51 -169 -114 -207 -193 -46 -94 -54 -156 -44 -356 5 -96 8 -214 9 -263 0 -48 2 -87 5 -86 3 0 28 32 56 72 29 40 102 130 164 201 171 198 195 246 209 416 7 86 15 122 35 163 40 82 123 159 232 214 l94 48 30 -31 31 -30 -23 -50 c-19 -41 -23 -66 -23 -155 0 -105 0 -106 44 -195 37 -74 60 -105 140 -185 53 -52 134 -124 181 -159 47 -35 102 -79 122 -98 l37 -35 53 44 c29 24 89 71 132 104 203 153 312 289 346 434 17 71 8 186 -19 246 -12 26 -21 49 -21 50 0 1 16 15 35 29 l35 27 87 -43 c61 -29 105 -60 148 -103 86 -84 105 -130 116 -269 12 -167 50 -247 184 -396 77 -83 224 -266 232 -287 13 -32 18 -6 18 90 1 56 5 170 9 252 18 306 -41 432 -255 545 -46 24 -136 78 -200 120 -63 41 -143 88 -177 104 -34 16 -62 34 -62 39 0 17 295 0 395 -23 152 -34 234 -81 391 -228 75 -70 162 -144 193 -165 69 -46 178 -92 263 -111 53 -13 465 -65 621 -79 l48 -5 -109 112 c-73 75 -138 155 -200 247 -105 155 -176 228 -264 269 -105 49 -181 56 -380 35 -116 -12 -200 -15 -258 -11 -98 8 -280 33 -286 39 -3 2 14 7 36 11 69 11 219 65 339 122 146 69 171 75 300 75 127 0 158 -9 356 -108 215 -108 270 -126 390 -126 97 -1 105 1 260 57 264 95 467 178 458 185 -4 5 -35 14 -68 21 -94 19 -165 52 -325 150 -82 50 -173 100 -202 110 -141 49 -254 31 -457 -76 -69 -37 -144 -73 -166 -81 -42 -15 -285 -56 -292 -49 -2 2 24 24 59 49 35 26 98 79 141 119 64 62 101 85 220 145 155 78 232 106 407 148 63 15 160 38 215 51 187 45 310 127 377 250 15 28 43 109 62 180 44 164 54 192 112 308 27 52 46 97 43 100 -2 2 -51 -19 -109 -48 -58 -28 -163 -68 -235 -90 -213 -63 -291 -108 -355 -207 -21 -33 -51 -97 -66 -142 -15 -45 -40 -108 -55 -139 -35 -70 -156 -194 -219 -225 -25 -13 -78 -41 -117 -63 -40 -21 -73 -37 -73 -34 0 4 13 23 29 43 44 56 144 234 196 351 65 144 98 237 139 387 51 188 72 238 122 290 l43 46 91 -7 c179 -13 220 18 359 277 23 42 38 77 34 77 -4 0 -28 -6 -53 -14 -25 -7 -83 -17 -130 -21 -96 -8 -176 -34 -221 -72 -16 -14 -48 -61 -69 -104 -34 -68 -76 -117 -88 -105 -2 3 8 78 23 168 40 245 71 298 185 312 75 10 144 49 180 104 29 44 107 259 97 268 -3 3 -22 -3 -44 -14 -21 -11 -76 -35 -123 -53 -106 -42 -150 -83 -172 -162 -14 -48 -49 -106 -91 -152 -5 -6 -8 50 -5 146 3 127 7 161 21 183 27 40 92 83 155 101 83 24 134 57 160 104 22 38 95 241 87 241 -14 0 -199 -76 -232 -96 -50 -29 -69 -62 -93 -160 -13 -55 -26 -82 -56 -117 -37 -42 -39 -44 -47 -24 -5 12 -7 78 -5 147 3 120 5 128 40 202 27 57 44 81 68 93 17 9 49 32 71 52 53 48 69 106 68 245 l0 109 -22 -28 c-11 -15 -55 -64 -98 -109 -43 -44 -80 -91 -83 -105 -3 -13 -7 -62 -9 -109 -2 -58 -11 -104 -26 -143 -13 -32 -25 -57 -27 -55 -2 2 -8 53 -13 113 -6 61 -18 158 -28 217 l-17 107 39 83 c32 68 40 97 43 157 3 41 -1 91 -7 112 -7 22 -53 94 -104 162 -51 67 -107 150 -125 185 -18 34 -34 62 -35 62 -1 0 -3 -25 -4 -56 -1 -30 -19 -115 -39 -187 -64 -229 -50 -325 69 -454 63 -67 76 -97 100 -223 14 -73 37 -262 37 -307 0 -45 -87 90 -110 172 -22 77 -41 113 -75 145 -23 21 -335 182 -335 172 0 -1 6 -15 14 -30 8 -15 25 -71 40 -124 54 -206 124 -283 277 -307 57 -9 68 -15 102 -53 64 -73 85 -129 97 -261 6 -66 10 -121 7 -123 -7 -8 -105 112 -120 147 -18 45 -71 89 -105 89 -30 0 -137 23 -165 35 -15 6 -13 -1 10 -41 16 -27 37 -66 48 -87 11 -22 33 -50 48 -63 27 -23 112 -54 147 -54 27 0 98 -56 116 -92 15 -29 16 -55 11 -201 -7 -182 -16 -224 -36 -165 -7 20 -21 44 -31 53 -11 10 -25 37 -31 59 -29 105 -42 135 -72 163 -42 40 -52 45 -214 102 -76 26 -146 52 -155 56 -16 6 -15 0 6 -46 13 -30 35 -88 50 -131 57 -161 113 -211 257 -229 46 -5 93 -16 105 -24 22 -14 60 -104 70 -166 10 -62 -35 -322 -83 -481 l-16 -53 -25 75 c-18 56 -25 99 -26 170 -1 75 -6 103 -23 136 -29 54 -77 100 -138 131 -27 14 -79 45 -114 70 l-64 44 7 -28 c3 -15 10 -77 15 -136 15 -164 53 -225 178 -284 50 -24 58 -33 81 -82 38 -87 48 -180 29 -274 -29 -144 -153 -368 -310 -562 -73 -89 -177 -195 -177 -179 0 6 51 112 114 236 151 299 177 384 156 498 -15 81 -79 202 -167 315 l-78 100 -7 -88 c-7 -84 -22 -135 -91 -322 -39 -105 -37 -196 9 -356 32 -112 35 -133 31 -219 -3 -82 -8 -105 -37 -165 -41 -86 -100 -146 -210 -212 -98 -59 -247 -133 -269 -133 -8 0 45 60 117 134 142 144 164 179 182 289 11 69 12 229 2 295 l-7 43 -38 -45 c-21 -25 -74 -73 -118 -107 -150 -114 -178 -184 -155 -385 8 -65 6 -76 -15 -119 -26 -52 -79 -105 -136 -133 -82 -42 -251 -82 -404 -97 l-66 -6 -6 68 c-3 38 -15 93 -26 123 -12 30 -21 55 -21 56 0 0 39 32 88 69 136 107 435 412 538 550 207 277 363 592 420 850 21 98 29 313 15 405 -36 226 -176 441 -375 573 l-69 46 -41 -25 c-63 -39 -158 -82 -212 -95 -27 -7 -50 -13 -52 -14 -2 -2 10 -29 26 -61 72 -142 104 -295 103 -483 -1 -109 4 -160 27 -270 24 -121 27 -158 27 -331 0 -150 -4 -215 -18 -280 -26 -123 -82 -283 -128 -370 -41 -76 -137 -215 -145 -208 -2 2 26 70 61 151 119 270 160 468 152 736 -4 129 -11 194 -32 291 -22 104 -27 154 -30 300 -1 96 -6 187 -10 203 l-7 27 -32 -43 c-54 -75 -160 -197 -171 -197 -6 0 -62 52 -125 115 l-114 115 39 40 39 40 77 -83 78 -82 26 30 c70 81 85 115 85 194 0 42 -5 92 -10 112 l-10 37 -42 -10 c-23 -5 -84 -13 -137 -18 l-96 -9 -63 -65 -64 -66 -106 95 c-59 52 -109 95 -112 95 -3 0 -23 -33 -46 -73 l-40 -73 45 -56 c25 -31 150 -163 278 -294 128 -132 257 -270 286 -309 99 -127 142 -240 135 -347 -5 -84 -32 -136 -119 -231 l-71 -78 25 -57 c37 -83 49 -138 50 -222 2 -193 -92 -318 -331 -443 -59 -31 -126 -68 -149 -82 -41 -25 -43 -25 -43 -6 0 33 62 103 140 159 41 29 102 72 136 96 68 48 110 98 130 153 20 59 17 174 -7 246 -11 34 -22 64 -25 66 -2 2 -25 -15 -51 -37 -26 -22 -88 -66 -138 -99 -183 -122 -269 -251 -300 -453 -5 -35 -6 -35 -52 -34 l-47 1 -17 86 c-34 172 -106 272 -276 388 -60 40 -129 90 -156 112 l-47 39 -15 -36 c-41 -99 -43 -222 -5 -302 29 -59 77 -105 183 -175 131 -87 217 -174 217 -219 0 -6 -28 4 -62 23 -35 19 -94 51 -133 72 -221 119 -305 216 -328 379 -13 87 5 201 46 290 l25 55 -43 46 c-70 73 -113 129 -130 168 -22 53 -19 170 6 245 41 122 113 214 385 492 181 186 239 248 296 320 l36 45 -40 73 c-47 84 -24 90 -172 -43 l-89 -80 -61 68 -61 67 -98 10 c-54 5 -116 13 -138 16 -35 6 -39 4 -49 -21 -18 -46 -23 -137 -11 -182 6 -23 32 -67 58 -98 l46 -57 81 81 82 81 37 -38 38 -39 -116 -114 c-64 -63 -121 -114 -128 -114 -14 0 -187 205 -187 223 0 6 -4 12 -9 12 -12 0 -21 -114 -21 -275 0 -102 -5 -162 -19 -220 -42 -180 -55 -336 -41 -498 19 -216 72 -403 174 -612 34 -69 59 -125 56 -125 -3 0 -34 38 -68 84 -104 140 -165 278 -219 491 -14 56 -18 114 -18 295 0 207 2 236 27 355 22 106 27 156 27 267 0 190 23 304 95 462 l33 72 -51 12 c-53 13 -168 65 -222 101 l-31 21 -63 -41 c-166 -107 -313 -300 -364 -479 -59 -207 -35 -467 69 -745 124 -332 384 -706 682 -981 75 -70 276 -242 290 -249 2 -1 -7 -25 -18 -55 -11 -30 -23 -85 -26 -122 -3 -37 -10 -68 -15 -68 -50 0 -221 26 -294 45 -173 45 -267 105 -306 193 -17 37 -18 57 -12 161 5 97 4 127 -10 168 -21 63 -68 118 -150 177 -35 25 -84 68 -108 95 l-46 50 -6 -31 c-10 -48 -7 -237 5 -308 16 -103 57 -165 190 -295 66 -63 119 -119 119 -124 0 -24 -258 112 -363 190 -157 118 -202 292 -136 525 20 68 34 141 37 195 4 77 1 94 -28 175 -68 191 -82 242 -88 324 l-7 85 -48 -60 c-78 -98 -138 -193 -171 -269 -60 -140 -35 -276 90 -501 57 -104 157 -316 150 -322 -7 -8 -174 178 -248 277 -89 120 -209 349 -234 450 -24 94 -14 199 26 283 28 60 34 67 93 95 67 32 120 84 144 140 8 19 18 82 23 141 5 59 12 120 16 136 l7 29 -39 -31 c-21 -16 -66 -45 -99 -63 -112 -62 -143 -90 -176 -154 -27 -54 -30 -70 -28 -136 2 -56 -3 -94 -21 -152 -14 -43 -27 -78 -30 -78 -8 0 -67 253 -85 364 -20 117 -19 150 6 223 29 87 53 110 125 117 175 19 237 73 299 266 15 47 34 98 42 113 19 38 12 42 -34 19 -21 -11 -78 -32 -128 -47 -116 -35 -174 -65 -213 -109 -29 -33 -62 -117 -62 -157 0 -9 -7 -23 -17 -30 -9 -8 -26 -36 -39 -62 -14 -31 -25 -44 -29 -36 -4 6 -10 94 -13 195 l-5 184 45 44 c24 25 57 48 73 51 86 19 137 38 159 58 25 22 121 186 113 193 -2 2 -19 -2 -38 -10 -19 -8 -61 -17 -94 -21 -85 -11 -110 -27 -145 -93 -29 -57 -107 -148 -117 -138 -3 3 -1 58 6 122 12 121 23 154 80 231 36 50 68 68 136 78 68 10 115 36 163 91 45 50 70 108 102 235 12 46 28 96 37 112 l15 29 -74 -39 c-40 -22 -109 -55 -153 -74 -113 -48 -154 -91 -183 -194 -20 -68 -93 -205 -109 -205 -9 0 8 181 27 285 29 162 36 179 100 252 90 104 105 139 105 253 0 77 -6 117 -33 212 -18 64 -36 144 -40 177 l-7 61 -34 -68z m1231 -1885 c16 -30 16 -103 0 -119 -12 -11 -17 -9 -30 11 -9 13 -40 48 -69 76 -55 54 -65 84 -43 126 10 18 14 17 70 -26 33 -25 65 -56 72 -68z m2426 84 c16 -45 5 -71 -52 -126 -28 -27 -56 -59 -63 -70 -12 -20 -12 -20 -28 -1 -18 23 -20 68 -4 99 11 22 118 126 131 127 3 0 11 -13 16 -29z m-2548 -226 c83 -96 96 -129 66 -170 -12 -17 -18 -14 -85 56 -77 81 -102 130 -82 168 7 11 17 21 24 21 7 0 41 -34 77 -75z m2630 50 c15 -38 -7 -79 -85 -163 -63 -67 -70 -72 -82 -56 -16 22 -16 62 0 90 20 35 131 153 145 153 7 1 17 -10 22 -24z m-2590 -325 c4 0 15 -15 23 -32 15 -33 13 -88 -4 -88 -16 0 -158 109 -169 130 -14 25 -13 83 2 98 8 8 27 -4 76 -48 36 -33 68 -60 72 -60z m2610 68 c0 -45 -24 -81 -82 -121 -29 -20 -63 -44 -75 -53 -27 -19 -43 -11 -43 22 0 40 26 79 77 117 26 19 59 47 72 61 29 31 51 20 51 -26z m-2677 -243 c52 -40 67 -62 67 -99 0 -39 -33 -33 -86 16 -49 45 -67 78 -58 103 9 23 27 18 77 -20z m2660 16 c7 -26 -22 -71 -71 -109 -58 -46 -78 -43 -72 13 2 24 43 70 85 96 38 24 51 24 58 0z m-3216 -439 c7 -64 15 -200 18 -302 7 -204 2 -208 -47 -47 -19 64 -20 84 -14 241 6 171 14 242 24 231 3 -3 11 -58 19 -123z m3742 -52 c13 -145 2 -248 -38 -355 l-30 -80 -1 80 c0 90 28 502 37 525 9 22 20 -39 32 -170z m-4758 17 c64 -52 165 -142 225 -199 60 -57 126 -116 147 -132 21 -16 36 -31 33 -33 -7 -7 -191 70 -232 98 -54 37 -135 126 -240 266 -83 110 -101 140 -66 111 9 -8 69 -58 133 -111z m5813 26 c-93 -127 -192 -240 -244 -278 -45 -33 -238 -121 -246 -112 -3 2 12 17 33 33 21 15 88 76 148 135 118 114 354 313 362 306 2 -3 -21 -40 -53 -84z m-2454 -357 c-1 -68 -45 -146 -82 -146 -14 0 -18 8 -18 38 0 87 52 179 85 152 8 -7 15 -27 15 -44z m-936 25 c36 -39 61 -160 37 -175 -14 -9 -62 35 -77 70 -8 19 -14 54 -14 79 0 37 3 45 18 45 11 0 27 -9 36 -19z m196 -151 c38 -54 40 -160 2 -160 -25 0 -52 50 -59 109 -10 84 17 108 57 51z m548 -9 c7 -74 -36 -161 -73 -148 -18 8 -21 81 -4 124 26 68 72 82 77 24z m-2343 -465 c66 -12 68 -14 43 -24 -76 -31 -206 -46 -403 -47 -205 0 -364 11 -349 24 7 6 142 36 294 65 44 8 342 -5 415 -18z m4610 -6 c205 -42 206 -42 90 -56 -128 -15 -346 -17 -455 -3 -109 13 -220 38 -220 49 0 16 185 36 340 39 70 0 134 -7 245 -29z m-2891 -2 c44 -63 -13 -268 -75 -268 -33 0 -44 29 -43 117 1 77 14 130 37 161 16 20 64 14 81 -10z m228 5 c14 -13 18 -31 18 -92 0 -95 -14 -144 -46 -170 -30 -24 -58 -15 -69 20 -18 56 -1 211 28 247 13 17 47 15 69 -5z m262 -16 c16 -22 21 -46 24 -126 4 -90 2 -101 -17 -120 -30 -30 -65 -12 -87 44 -20 53 -23 181 -6 213 18 31 58 26 86 -11z m237 3 c27 -37 43 -166 27 -216 -32 -98 -113 -16 -125 126 -5 55 -2 74 11 95 22 33 61 31 87 -5z m-581 -346 c0 -3 -16 -25 -35 -48 -62 -76 -87 -146 -95 -265 -5 -91 -8 -102 -17 -79 -49 112 -31 260 40 350 21 27 107 61 107 42z m251 -61 c117 -120 149 -183 149 -292 0 -78 -11 -123 -52 -213 -52 -114 -63 -79 -27 82 39 176 20 250 -94 375 l-54 60 -46 -50 c-25 -28 -60 -74 -78 -103 -44 -72 -50 -160 -20 -285 12 -49 21 -103 21 -120 l0 -32 -20 25 c-11 14 -34 61 -51 105 -28 72 -31 88 -27 165 3 70 9 94 33 140 31 56 169 210 189 210 6 0 41 -30 77 -67z m162 50 c40 -20 52 -35 82 -98 34 -72 40 -145 20 -233 -9 -40 -19 -71 -22 -69 -3 3 -7 41 -10 84 -2 43 -9 96 -14 118 -11 44 -79 164 -103 185 -38 31 -5 40 47 13z m-1548 -3 c-3 -5 -11 -10 -17 -10 -7 0 -68 -31 -137 -69 -133 -72 -187 -95 -451 -189 -91 -33 -174 -63 -184 -67 -80 -34 233 182 321 221 62 28 188 65 333 98 118 28 144 31 135 16z m2781 -24 c179 -42 293 -78 354 -113 61 -36 292 -194 288 -198 -4 -4 -278 94 -423 150 -49 19 -128 55 -175 80 -47 25 -111 58 -142 73 -32 15 -57 30 -58 35 0 9 -15 12 156 -27z m-2408 -223 c-13 -21 -61 -112 -106 -203 -80 -160 -172 -317 -172 -293 0 23 31 149 56 226 34 101 108 213 182 271 31 25 58 43 61 41 2 -3 -7 -22 -21 -42z m1976 -58 c80 -97 118 -182 161 -355 8 -36 18 -73 21 -84 25 -81 -105 138 -197 330 -38 80 -78 158 -89 174 -11 15 -20 31 -20 35 0 13 92 -60 124 -100z m-1017 -170 c7 -130 -12 -278 -30 -235 -13 30 -16 347 -3 375 8 19 8 19 17 -5 6 -13 13 -74 16 -135z"/>
<path d="M3328 6191 c-27 -24 -33 -36 -33 -70 0 -59 39 -96 101 -96 38 0 50 5 70 28 35 41 33 99 -5 138 -40 40 -89 40 -133 0z"/>
<path d="M6814 6210 c-56 -22 -73 -112 -30 -155 49 -49 115 -42 154 16 30 43 24 84 -18 122 -31 28 -66 33 -106 17z"/>
<path d="M5070 5597 c-25 -34 -92 -110 -148 -169 l-104 -107 81 -96 c45 -53 81 -102 81 -108 0 -11 -75 -108 -215 -276 l-60 -72 -102 106 -101 107 -37 -75 c-30 -60 -37 -85 -37 -138 -1 -35 4 -75 12 -89 40 -76 197 -223 417 -389 135 -102 197 -166 238 -247 l27 -53 31 60 c43 83 108 147 272 269 170 126 366 316 385 374 17 52 7 133 -23 199 -46 98 -41 99 -142 -13 -49 -54 -95 -99 -102 -99 -11 -1 -249 280 -277 327 -5 8 21 48 74 112 l81 100 -110 118 c-61 64 -127 141 -148 169 -21 29 -40 52 -43 52 -3 0 -25 -28 -50 -62z m126 -268 c3 -9 -12 -44 -34 -79 l-40 -62 -42 62 -43 63 31 76 c17 42 36 90 42 106 11 30 12 29 46 -60 20 -49 38 -97 40 -106z m9 -365 c108 -163 137 -229 143 -324 6 -99 -11 -139 -107 -249 -39 -45 -82 -97 -96 -114 l-26 -32 -22 30 c-12 16 -54 68 -94 114 -97 112 -108 137 -108 236 0 72 4 88 37 157 35 73 80 146 155 251 19 26 36 47 38 47 2 0 38 -52 80 -116z"/>
<path d="M5081 4822 c-84 -132 -80 -244 15 -357 l25 -30 29 35 c75 89 91 189 46 287 -26 55 -65 113 -77 113 -4 0 -21 -22 -38 -48z"/>
<path d="M4646 5168 c-42 -45 -76 -86 -76 -90 0 -4 30 -42 66 -83 54 -62 69 -74 79 -63 68 76 135 156 135 161 0 5 -72 96 -120 150 -4 5 -42 -29 -84 -75z"/>
<path d="M5455 5173 c-33 -42 -60 -78 -59 -81 0 -3 32 -43 70 -89 l69 -84 72 77 72 77 -19 26 c-10 14 -47 54 -82 88 l-63 63 -60 -77z"/>
<path d="M3535 2634 c-109 -46 -122 -62 -156 -185 -16 -56 -27 -104 -26 -106 7 -7 174 76 204 101 25 21 35 41 46 94 27 120 29 132 20 131 -4 0 -44 -16 -88 -35z"/>
<path d="M6624 2648 c36 -174 37 -177 69 -204 18 -15 50 -35 72 -44 22 -10 60 -27 84 -39 25 -11 46 -19 48 -18 1 2 -11 50 -27 107 -19 66 -38 113 -52 127 -18 17 -175 93 -194 93 -2 0 -2 -10 0 -22z"/>
<path d="M5116 2059 c-3 -13 -17 -75 -30 -137 -13 -62 -26 -115 -29 -118 -3 -3 -18 3 -34 14 -27 19 -126 82 -150 96 -6 3 17 -40 53 -96 35 -57 64 -106 64 -109 0 -7 -110 -34 -183 -46 -21 -3 -36 -8 -33 -10 2 -3 50 -15 105 -27 56 -13 104 -26 107 -29 3 -3 -16 -38 -44 -79 -27 -40 -55 -84 -62 -98 l-13 -24 29 19 c121 79 156 98 163 86 5 -7 18 -63 31 -124 12 -62 26 -116 31 -122 6 -5 9 -5 9 2 0 18 49 243 55 253 3 5 45 -17 93 -49 48 -32 89 -57 91 -55 2 2 -24 45 -57 96 -70 107 -76 95 73 129 l100 22 -110 24 c-60 13 -114 24 -118 26 -4 1 17 43 48 92 31 50 61 98 66 108 6 10 -33 -10 -86 -44 -53 -34 -97 -60 -99 -58 -2 2 -16 65 -31 139 -15 74 -29 137 -31 139 -2 2 -5 -7 -8 -20z"/>
</g>
</svg>